<?xml version="1.0" encoding="UTF-8" standalone="no"?>
<!DOCTYPE svg PUBLIC "-//W3C//DTD SVG 1.1//EN"
 "http://www.w3.org/Graphics/SVG/1.1/DTD/svg11.dtd">
<!-- Generated by graphviz version 2.42.3 (0)
 -->
<!-- Title: d Pages: 1 -->
<svg width="276pt" height="416pt"
 viewBox="0.00 0.00 276.00 416.00" xmlns="http://www.w3.org/2000/svg" xmlns:xlink="http://www.w3.org/1999/xlink">
<g id="graph0" class="graph" transform="scale(1 1) rotate(0) translate(4 412)">
<title>d</title>
<polygon fill="white" stroke="transparent" points="-4,4 -4,-412 272,-412 272,4 -4,4"/>
<g id="clust1" class="cluster">
<title>cluster_input</title>
<polygon fill="none" stroke="black" points="8,-322 8,-400 260,-400 260,-322 8,-322"/>
<text text-anchor="middle" x="134" y="-383.2" font-family="Times,serif" font-size="16.00">Input</text>
</g>
<g id="clust2" class="cluster">
<title>cluster_hash</title>
<polygon fill="none" stroke="black" points="86,-106 86,-302 259,-302 259,-106 86,-106"/>
</g>
<g id="clust5" class="cluster">
<title>cluster_output</title>
<polygon fill="none" stroke="black" points="134,-8 134,-86 210,-86 210,-8 134,-8"/>
<text text-anchor="middle" x="172" y="-17.2" font-family="Times,serif" font-size="16.00">Output</text>
</g>
<!-- s -->
<g id="node1" class="node">
<title>s</title>
<polygon fill="lightgrey" stroke="black" points="74,-366 16,-366 16,-330 74,-330 74,-366"/>
<text text-anchor="middle" x="45" y="-344.3" font-family="Times,serif" font-size="14.00">Service</text>
</g>
<!-- sg -->
<g id="node7" class="node">
<title>sg</title>
<polygon fill="lightgrey" stroke="black" points="162,-222 94,-222 94,-186 162,-186 162,-222"/>
<text text-anchor="middle" x="128" y="-200.3" font-family="Times,serif" font-size="14.00">LE Bytes</text>
</g>
<!-- s&#45;&gt;sg -->
<g id="edge5" class="edge">
<title>s&#45;&gt;sg</title>
<path fill="none" stroke="black" d="M45,-329.76C45,-291.01 45,-204 45,-204 45,-204 83.76,-204 83.76,-204"/>
<polygon fill="black" stroke="black" points="83.76,-207.5 93.76,-204 83.76,-200.5 83.76,-207.5"/>
</g>
<!-- u -->
<g id="node2" class="node">
<title>u</title>
<polygon fill="lightgrey" stroke="black" points="165.5,-366 92.5,-366 92.5,-330 165.5,-330 165.5,-366"/>
<text text-anchor="middle" x="129" y="-344.3" font-family="Times,serif" font-size="14.00">Username</text>
</g>
<!-- uh -->
<g id="node4" class="node">
<title>uh</title>
<polygon fill="lightgrey" stroke="black" points="163.5,-294 94.5,-294 94.5,-258 163.5,-258 163.5,-294"/>
<text text-anchor="middle" x="129" y="-272.3" font-family="Times,serif" font-size="14.00">BLAKE3</text>
</g>
<!-- u&#45;&gt;uh -->
<g id="edge1" class="edge">
<title>u&#45;&gt;uh</title>
<path fill="none" stroke="black" d="M129,-329.83C129,-329.83 129,-304.41 129,-304.41"/>
<polygon fill="black" stroke="black" points="132.5,-304.41 129,-294.41 125.5,-304.41 132.5,-304.41"/>
</g>
<!-- p -->
<g id="node3" class="node">
<title>p</title>
<polygon fill="lightgrey" stroke="black" points="252,-366 184,-366 184,-330 252,-330 252,-366"/>
<text text-anchor="middle" x="218" y="-344.3" font-family="Times,serif" font-size="14.00">Password</text>
</g>
<!-- ph -->
<g id="node5" class="node">
<title>ph</title>
<polygon fill="lightgrey" stroke="black" points="250.5,-294 181.5,-294 181.5,-258 250.5,-258 250.5,-294"/>
<text text-anchor="middle" x="216" y="-272.3" font-family="Times,serif" font-size="14.00">BLAKE3</text>
</g>
<!-- p&#45;&gt;ph -->
<g id="edge2" class="edge">
<title>p&#45;&gt;ph</title>
<path fill="none" stroke="black" d="M217.25,-329.83C217.25,-329.83 217.25,-304.41 217.25,-304.41"/>
<polygon fill="black" stroke="black" points="220.75,-304.41 217.25,-294.41 213.75,-304.41 220.75,-304.41"/>
</g>
<!-- i -->
<g id="node6" class="node">
<title>i</title>
<polygon fill="lightgrey" stroke="black" points="244,-222 180,-222 180,-186 244,-186 244,-222"/>
<text text-anchor="middle" x="212" y="-200.3" font-family="Times,serif" font-size="14.00">Interlace</text>
</g>
<!-- uh&#45;&gt;i -->
<g id="edge3" class="edge">
<title>uh&#45;&gt;i</title>
<path fill="none" stroke="black" d="M163.9,-276C169.09,-276 172.75,-276 172.75,-276 172.75,-276 172.75,-204 172.75,-204 172.75,-204 173.47,-204 173.47,-204"/>
<polygon fill="black" stroke="black" points="169.95,-207.5 179.95,-204 169.95,-200.5 169.95,-207.5"/>
</g>
<!-- ph&#45;&gt;i -->
<g id="edge4" class="edge">
<title>ph&#45;&gt;i</title>
<path fill="none" stroke="black" d="M212.75,-257.83C212.75,-257.83 212.75,-232.41 212.75,-232.41"/>
<polygon fill="black" stroke="black" points="216.25,-232.41 212.75,-222.41 209.25,-232.41 216.25,-232.41"/>
</g>
<!-- fh -->
<g id="node8" class="node">
<title>fh</title>
<polygon fill="lightgrey" stroke="black" points="226,-150 118,-150 118,-114 226,-114 226,-150"/>
<text text-anchor="middle" x="172" y="-128.3" font-family="Times,serif" font-size="14.00">Keyed BLAKE3</text>
</g>
<!-- i&#45;&gt;fh -->
<g id="edge6" class="edge">
<title>i&#45;&gt;fh</title>
<path fill="none" stroke="black" d="M203,-185.83C203,-185.83 203,-160.41 203,-160.41"/>
<polygon fill="black" stroke="black" points="206.5,-160.41 203,-150.41 199.5,-160.41 206.5,-160.41"/>
</g>
<!-- sg&#45;&gt;fh -->
<g id="edge7" class="edge">
<title>sg&#45;&gt;fh</title>
<path fill="none" stroke="black" d="M140,-185.83C140,-185.83 140,-160.41 140,-160.41"/>
<polygon fill="black" stroke="black" points="143.5,-160.41 140,-150.41 136.5,-160.41 143.5,-160.41"/>
</g>
<!-- out -->
<g id="node9" class="node">
<title>out</title>
<polygon fill="lightgrey" stroke="black" points="202,-78 142,-78 142,-42 202,-42 202,-78"/>
<text text-anchor="middle" x="172" y="-56.3" font-family="Times,serif" font-size="14.00">Base 91</text>
</g>
<!-- fh&#45;&gt;out -->
<g id="edge8" class="edge">
<title>fh&#45;&gt;out</title>
<path fill="none" stroke="black" d="M172,-113.83C172,-113.83 172,-88.41 172,-88.41"/>
<polygon fill="black" stroke="black" points="175.5,-88.41 172,-78.41 168.5,-88.41 175.5,-88.41"/>
</g>
</g>
</svg>
