<?xml version="1.0" encoding="UTF-8" standalone="no"?>
<!DOCTYPE svg PUBLIC "-//W3C//DTD SVG 1.1//EN"
 "http://www.w3.org/Graphics/SVG/1.1/DTD/svg11.dtd">
<!-- Generated by graphviz version 2.40.1 (20161225.0304)
 -->
<!-- Title: d Pages: 1 -->
<svg width="304pt" height="332pt"
 viewBox="0.00 0.00 303.89 332.00" xmlns="http://www.w3.org/2000/svg" xmlns:xlink="http://www.w3.org/1999/xlink">
<g id="graph0" class="graph" transform="scale(1 1) rotate(0) translate(4 328)">
<title>d</title>
<polygon fill="#ffffff" stroke="transparent" points="-4,4 -4,-328 299.8927,-328 299.8927,4 -4,4"/>
<!-- s -->
<g id="node1" class="node">
<title>s</title>
<ellipse fill="none" stroke="#000000" cx="37.6967" cy="-306" rx="37.8943" ry="18"/>
<text text-anchor="middle" x="37.6967" y="-302.3" font-family="Times,serif" font-size="14.00" fill="#000000">Service</text>
</g>
<!-- sh -->
<g id="node4" class="node">
<title>sh</title>
<ellipse fill="none" stroke="#000000" cx="44.6967" cy="-234" rx="36.2938" ry="18"/>
<text text-anchor="middle" x="44.6967" y="-230.3" font-family="Times,serif" font-size="14.00" fill="#000000">SHA&#45;1</text>
</g>
<!-- s&#45;&gt;sh -->
<g id="edge1" class="edge">
<title>s&#45;&gt;sh</title>
<path fill="none" stroke="#000000" d="M39.4631,-287.8314C40.2117,-280.131 41.1019,-270.9743 41.9339,-262.4166"/>
<polygon fill="#000000" stroke="#000000" points="45.4223,-262.7051 42.9065,-252.4133 38.4552,-262.0276 45.4223,-262.7051"/>
</g>
<!-- u -->
<g id="node2" class="node">
<title>u</title>
<ellipse fill="none" stroke="#000000" cx="141.6967" cy="-306" rx="48.1917" ry="18"/>
<text text-anchor="middle" x="141.6967" y="-302.3" font-family="Times,serif" font-size="14.00" fill="#000000">Username</text>
</g>
<!-- uh -->
<g id="node5" class="node">
<title>uh</title>
<ellipse fill="none" stroke="#000000" cx="141.6967" cy="-234" rx="36.2938" ry="18"/>
<text text-anchor="middle" x="141.6967" y="-230.3" font-family="Times,serif" font-size="14.00" fill="#000000">SHA&#45;1</text>
</g>
<!-- u&#45;&gt;uh -->
<g id="edge2" class="edge">
<title>u&#45;&gt;uh</title>
<path fill="none" stroke="#000000" d="M141.6967,-287.8314C141.6967,-280.131 141.6967,-270.9743 141.6967,-262.4166"/>
<polygon fill="#000000" stroke="#000000" points="145.1968,-262.4132 141.6967,-252.4133 138.1968,-262.4133 145.1968,-262.4132"/>
</g>
<!-- p -->
<g id="node3" class="node">
<title>p</title>
<ellipse fill="none" stroke="#000000" cx="251.6967" cy="-306" rx="44.393" ry="18"/>
<text text-anchor="middle" x="251.6967" y="-302.3" font-family="Times,serif" font-size="14.00" fill="#000000">Password</text>
</g>
<!-- ph -->
<g id="node6" class="node">
<title>ph</title>
<ellipse fill="none" stroke="#000000" cx="241.6967" cy="-234" rx="36.2938" ry="18"/>
<text text-anchor="middle" x="241.6967" y="-230.3" font-family="Times,serif" font-size="14.00" fill="#000000">SHA&#45;1</text>
</g>
<!-- p&#45;&gt;ph -->
<g id="edge3" class="edge">
<title>p&#45;&gt;ph</title>
<path fill="none" stroke="#000000" d="M249.1732,-287.8314C248.1037,-280.131 246.832,-270.9743 245.6434,-262.4166"/>
<polygon fill="#000000" stroke="#000000" points="249.0965,-261.8367 244.2541,-252.4133 242.1631,-262.7997 249.0965,-261.8367"/>
</g>
<!-- i -->
<g id="node7" class="node">
<title>i</title>
<ellipse fill="none" stroke="#000000" cx="141.6967" cy="-162" rx="42.7926" ry="18"/>
<text text-anchor="middle" x="141.6967" y="-158.3" font-family="Times,serif" font-size="14.00" fill="#000000">Interlace</text>
</g>
<!-- sh&#45;&gt;i -->
<g id="edge4" class="edge">
<title>sh&#45;&gt;i</title>
<path fill="none" stroke="#000000" d="M65.2679,-218.7307C78.9693,-208.5605 97.1819,-195.0419 112.3915,-183.7523"/>
<polygon fill="#000000" stroke="#000000" points="114.5409,-186.5157 120.4845,-177.7451 110.3687,-180.8949 114.5409,-186.5157"/>
</g>
<!-- uh&#45;&gt;i -->
<g id="edge5" class="edge">
<title>uh&#45;&gt;i</title>
<path fill="none" stroke="#000000" d="M141.6967,-215.8314C141.6967,-208.131 141.6967,-198.9743 141.6967,-190.4166"/>
<polygon fill="#000000" stroke="#000000" points="145.1968,-190.4132 141.6967,-180.4133 138.1968,-190.4133 145.1968,-190.4132"/>
</g>
<!-- ph&#45;&gt;i -->
<g id="edge6" class="edge">
<title>ph&#45;&gt;i</title>
<path fill="none" stroke="#000000" d="M220.9766,-219.0816C206.7854,-208.8639 187.7354,-195.1479 171.866,-183.7219"/>
<polygon fill="#000000" stroke="#000000" points="173.5883,-180.6492 163.4279,-177.6465 169.4982,-186.33 173.5883,-180.6492"/>
</g>
<!-- fh -->
<g id="node8" class="node">
<title>fh</title>
<ellipse fill="none" stroke="#000000" cx="141.6967" cy="-90" rx="50.0912" ry="18"/>
<text text-anchor="middle" x="141.6967" y="-86.3" font-family="Times,serif" font-size="14.00" fill="#000000">SHA3&#45;256</text>
</g>
<!-- i&#45;&gt;fh -->
<g id="edge7" class="edge">
<title>i&#45;&gt;fh</title>
<path fill="none" stroke="#000000" d="M141.6967,-143.8314C141.6967,-136.131 141.6967,-126.9743 141.6967,-118.4166"/>
<polygon fill="#000000" stroke="#000000" points="145.1968,-118.4132 141.6967,-108.4133 138.1968,-118.4133 145.1968,-118.4132"/>
</g>
<!-- out -->
<g id="node9" class="node">
<title>out</title>
<ellipse fill="none" stroke="#000000" cx="141.6967" cy="-18" rx="38.1938" ry="18"/>
<text text-anchor="middle" x="141.6967" y="-14.3" font-family="Times,serif" font-size="14.00" fill="#000000">Base 91</text>
</g>
<!-- fh&#45;&gt;out -->
<g id="edge8" class="edge">
<title>fh&#45;&gt;out</title>
<path fill="none" stroke="#000000" d="M141.6967,-71.8314C141.6967,-64.131 141.6967,-54.9743 141.6967,-46.4166"/>
<polygon fill="#000000" stroke="#000000" points="145.1968,-46.4132 141.6967,-36.4133 138.1968,-46.4133 145.1968,-46.4132"/>
</g>
</g>
</svg>
