<?xml version="1.0" encoding="UTF-8" standalone="no"?>
<!DOCTYPE svg PUBLIC "-//W3C//DTD SVG 1.1//EN"
 "http://www.w3.org/Graphics/SVG/1.1/DTD/svg11.dtd">
<!-- Generated by graphviz version 2.42.3 (0)
 -->
<!-- Title: d Pages: 1 -->
<svg width="586pt" height="220pt"
 viewBox="0.00 0.00 586.00 220.00" xmlns="http://www.w3.org/2000/svg" xmlns:xlink="http://www.w3.org/1999/xlink">
<g id="graph0" class="graph" transform="scale(1 1) rotate(0) translate(4 216)">
<title>d</title>
<polygon fill="white" stroke="transparent" points="-4,4 -4,-216 582,-216 582,4 -4,4"/>
<g id="clust1" class="cluster">
<title>cluster_input</title>
<polygon fill="none" stroke="black" points="193,-152 193,-204 541,-204 541,-152 193,-152"/>
</g>
<g id="clust2" class="cluster">
<title>cluster_hashing</title>
<polygon fill="none" stroke="black" points="109,-80 109,-132 570,-132 570,-80 109,-80"/>
</g>
<g id="clust3" class="cluster">
<title>cluster_conversion</title>
<polygon fill="none" stroke="black" points="8,-8 8,-60 442,-60 442,-8 8,-8"/>
</g>
<!-- service_id -->
<g id="node1" class="node">
<title>service_id</title>
<polygon fill="lightgrey" stroke="black" points="287,-196 201,-196 201,-160 287,-160 287,-196"/>
<text text-anchor="middle" x="244" y="-174.3" font-family="Times,serif" font-size="14.00">Service: u64</text>
</g>
<!-- salt_gen -->
<g id="node8" class="node">
<title>salt_gen</title>
<polygon fill="lightgrey" stroke="black" points="144,-52 16,-52 16,-16 144,-16 144,-52"/>
<text text-anchor="middle" x="80" y="-30.3" font-family="Times,serif" font-size="14.00">decode() &#45;&gt; [u8; 32]</text>
</g>
<!-- service_id&#45;&gt;salt_gen -->
<g id="edge1" class="edge">
<title>service_id&#45;&gt;salt_gen</title>
<path fill="none" stroke="black" d="M200.58,-178C148.03,-178 66.5,-178 66.5,-178 66.5,-178 66.5,-62.24 66.5,-62.24"/>
<polygon fill="black" stroke="black" points="70,-62.24 66.5,-52.24 63,-62.24 70,-62.24"/>
</g>
<!-- username -->
<g id="node2" class="node">
<title>username</title>
<polygon fill="lightgrey" stroke="black" points="419,-196 305,-196 305,-160 419,-160 419,-196"/>
<text text-anchor="middle" x="362" y="-174.3" font-family="Times,serif" font-size="14.00">Username: String</text>
</g>
<!-- user_hash -->
<g id="node4" class="node">
<title>user_hash</title>
<polygon fill="lightgrey" stroke="black" points="424.5,-124 299.5,-124 299.5,-88 424.5,-88 424.5,-124"/>
<text text-anchor="middle" x="362" y="-102.3" font-family="Times,serif" font-size="14.00">blake3() &#45;&gt; [u8; 32]</text>
</g>
<!-- username&#45;&gt;user_hash -->
<g id="edge2" class="edge">
<title>username&#45;&gt;user_hash</title>
<path fill="none" stroke="black" d="M362,-159.83C362,-159.83 362,-134.41 362,-134.41"/>
<polygon fill="black" stroke="black" points="365.5,-134.41 362,-124.41 358.5,-134.41 365.5,-134.41"/>
</g>
<!-- master_pass -->
<g id="node3" class="node">
<title>master_pass</title>
<polygon fill="lightgrey" stroke="black" points="533,-196 437,-196 437,-160 533,-160 533,-196"/>
<text text-anchor="middle" x="485" y="-174.3" font-family="Times,serif" font-size="14.00">Master: String</text>
</g>
<!-- master_hash -->
<g id="node5" class="node">
<title>master_hash</title>
<polygon fill="lightgrey" stroke="black" points="561.5,-124 442.5,-124 442.5,-88 561.5,-88 561.5,-124"/>
<text text-anchor="middle" x="502" y="-102.3" font-family="Times,serif" font-size="14.00">blake() &#45;&gt; [u8; 32]</text>
</g>
<!-- master_pass&#45;&gt;master_hash -->
<g id="edge3" class="edge">
<title>master_pass&#45;&gt;master_hash</title>
<path fill="none" stroke="black" d="M487.75,-159.83C487.75,-159.83 487.75,-134.41 487.75,-134.41"/>
<polygon fill="black" stroke="black" points="491.25,-134.41 487.75,-124.41 484.25,-134.41 491.25,-134.41"/>
</g>
<!-- interlace -->
<g id="node9" class="node">
<title>interlace</title>
<polygon fill="lightgrey" stroke="black" points="434,-52 298,-52 298,-16 434,-16 434,-52"/>
<text text-anchor="middle" x="366" y="-30.3" font-family="Times,serif" font-size="14.00">interlace() &#45;&gt; [u8; 64]</text>
</g>
<!-- user_hash&#45;&gt;interlace -->
<g id="edge4" class="edge">
<title>user_hash&#45;&gt;interlace</title>
<path fill="none" stroke="black" d="M362,-87.83C362,-87.83 362,-62.41 362,-62.41"/>
<polygon fill="black" stroke="black" points="365.5,-62.41 362,-52.41 358.5,-62.41 365.5,-62.41"/>
</g>
<!-- master_hash&#45;&gt;interlace -->
<g id="edge5" class="edge">
<title>master_hash&#45;&gt;interlace</title>
<path fill="none" stroke="black" d="M442.26,-106C434.54,-106 429.25,-106 429.25,-106 429.25,-106 429.25,-62.17 429.25,-62.17"/>
<polygon fill="black" stroke="black" points="432.75,-62.17 429.25,-52.17 425.75,-62.17 432.75,-62.17"/>
</g>
<!-- salted_hash -->
<g id="node6" class="node">
<title>salted_hash</title>
<polygon fill="lightgrey" stroke="black" points="281,-124 117,-124 117,-88 281,-88 281,-124"/>
<text text-anchor="middle" x="199" y="-102.3" font-family="Times,serif" font-size="14.00">keyed_blake3() &#45;&gt; [u8; 32]</text>
</g>
<!-- base85 -->
<g id="node7" class="node">
<title>base85</title>
<polygon fill="lightgrey" stroke="black" points="279.5,-52 162.5,-52 162.5,-16 279.5,-16 279.5,-52"/>
<text text-anchor="middle" x="221" y="-30.3" font-family="Times,serif" font-size="14.00">base85() &#45;&gt; String</text>
</g>
<!-- salted_hash&#45;&gt;base85 -->
<g id="edge6" class="edge">
<title>salted_hash&#45;&gt;base85</title>
<path fill="none" stroke="black" d="M221,-87.83C221,-87.83 221,-62.41 221,-62.41"/>
<polygon fill="black" stroke="black" points="224.5,-62.41 221,-52.41 217.5,-62.41 224.5,-62.41"/>
</g>
<!-- salt_gen&#45;&gt;salted_hash -->
<g id="edge8" class="edge">
<title>salt_gen&#45;&gt;salted_hash</title>
<path fill="none" stroke="black" d="M130.5,-52.17C130.5,-52.17 130.5,-77.59 130.5,-77.59"/>
<polygon fill="black" stroke="black" points="127,-77.59 130.5,-87.59 134,-77.59 127,-77.59"/>
</g>
<!-- interlace&#45;&gt;salted_hash -->
<g id="edge7" class="edge">
<title>interlace&#45;&gt;salted_hash</title>
<path fill="none" stroke="black" d="M297.79,-34C294.48,-34 292.5,-34 292.5,-34 292.5,-34 292.5,-106 292.5,-106 292.5,-106 291.04,-106 291.04,-106"/>
<polygon fill="black" stroke="black" points="291.04,-102.5 281.04,-106 291.04,-109.5 291.04,-102.5"/>
</g>
</g>
</svg>
