<?xml version="1.0" encoding="UTF-8" standalone="no"?>
<!DOCTYPE svg PUBLIC "-//W3C//DTD SVG 1.1//EN"
 "http://www.w3.org/Graphics/SVG/1.1/DTD/svg11.dtd">
<!-- Generated by graphviz version 2.40.1 (20161225.0304)
 -->
<!-- Title: d Pages: 1 -->
<svg width="276pt" height="416pt"
 viewBox="0.00 0.00 276.00 416.00" xmlns="http://www.w3.org/2000/svg" xmlns:xlink="http://www.w3.org/1999/xlink">
<g id="graph0" class="graph" transform="scale(1 1) rotate(0) translate(4 412)">
<title>d</title>
<polygon fill="#ffffff" stroke="transparent" points="-4,4 -4,-412 272,-412 272,4 -4,4"/>
<g id="clust1" class="cluster">
<title>cluster_input</title>
<polygon fill="none" stroke="#000000" points="8,-322 8,-400 260,-400 260,-322 8,-322"/>
<text text-anchor="middle" x="134" y="-383.2" font-family="Times,serif" font-size="16.00" fill="#000000">Input</text>
</g>
<g id="clust2" class="cluster">
<title>cluster_hash</title>
<polygon fill="none" stroke="#000000" points="26,-106 26,-302 246,-302 246,-106 26,-106"/>
</g>
<g id="clust6" class="cluster">
<title>cluster_output</title>
<polygon fill="none" stroke="#000000" points="98,-8 98,-86 174,-86 174,-8 98,-8"/>
<text text-anchor="middle" x="136" y="-17.2" font-family="Times,serif" font-size="16.00" fill="#000000">Output</text>
</g>
<!-- s -->
<g id="node1" class="node">
<title>s</title>
<polygon fill="#d3d3d3" stroke="#000000" points="252,-366 194,-366 194,-330 252,-330 252,-366"/>
<text text-anchor="middle" x="223" y="-344.3" font-family="Times,serif" font-size="14.00" fill="#000000">Service</text>
</g>
<!-- sh -->
<g id="node4" class="node">
<title>sh</title>
<polygon fill="#d3d3d3" stroke="#000000" points="164,-294 108,-294 108,-258 164,-258 164,-294"/>
<text text-anchor="middle" x="136" y="-272.3" font-family="Times,serif" font-size="14.00" fill="#000000">SHA&#45;1</text>
</g>
<!-- s&#45;&gt;sh -->
<g id="edge1" class="edge">
<title>s&#45;&gt;sh</title>
<path fill="none" stroke="#000000" d="M208.6667,-329.5782C208.6667,-320.7209 208.6667,-312 208.6667,-312 208.6667,-312 136,-312 136,-312 136,-312 136,-304.4218 136,-304.4218"/>
<polygon fill="#000000" stroke="#000000" points="139.5001,-304.4218 136,-294.4218 132.5001,-304.4219 139.5001,-304.4218"/>
</g>
<!-- uh -->
<g id="node5" class="node">
<title>uh</title>
<polygon fill="#d3d3d3" stroke="#000000" points="238,-294 182,-294 182,-258 238,-258 238,-294"/>
<text text-anchor="middle" x="210" y="-272.3" font-family="Times,serif" font-size="14.00" fill="#000000">SHA&#45;1</text>
</g>
<!-- s&#45;&gt;uh -->
<g id="edge2" class="edge">
<title>s&#45;&gt;uh</title>
<path fill="none" stroke="#000000" d="M223.3333,-329.8314C223.3333,-329.8314 223.3333,-304.4133 223.3333,-304.4133"/>
<polygon fill="#000000" stroke="#000000" points="226.8334,-304.4132 223.3333,-294.4133 219.8334,-304.4133 226.8334,-304.4132"/>
</g>
<!-- u -->
<g id="node2" class="node">
<title>u</title>
<polygon fill="#d3d3d3" stroke="#000000" points="176,-366 102,-366 102,-330 176,-330 176,-366"/>
<text text-anchor="middle" x="139" y="-344.3" font-family="Times,serif" font-size="14.00" fill="#000000">Username</text>
</g>
<!-- u&#45;&gt;uh -->
<g id="edge3" class="edge">
<title>u&#45;&gt;uh</title>
<path fill="none" stroke="#000000" d="M176.1385,-348C182.9726,-348 188,-348 188,-348 188,-348 188,-304.1686 188,-304.1686"/>
<polygon fill="#000000" stroke="#000000" points="191.5001,-304.1686 188,-294.1686 184.5001,-304.1687 191.5001,-304.1686"/>
</g>
<!-- ph -->
<g id="node6" class="node">
<title>ph</title>
<polygon fill="#d3d3d3" stroke="#000000" points="90,-294 34,-294 34,-258 90,-258 90,-294"/>
<text text-anchor="middle" x="62" y="-272.3" font-family="Times,serif" font-size="14.00" fill="#000000">SHA&#45;1</text>
</g>
<!-- u&#45;&gt;ph -->
<g id="edge4" class="edge">
<title>u&#45;&gt;ph</title>
<path fill="none" stroke="#000000" d="M101.875,-342C97.75,-342 95,-342 95,-342 95,-342 95,-282 95,-282 95,-282 94.5131,-282 94.5131,-282"/>
<polygon fill="#000000" stroke="#000000" points="100.1308,-278.5002 90.1307,-282 100.1307,-285.5002 100.1308,-278.5002"/>
</g>
<!-- p -->
<g id="node3" class="node">
<title>p</title>
<polygon fill="#d3d3d3" stroke="#000000" points="84,-366 16,-366 16,-330 84,-330 84,-366"/>
<text text-anchor="middle" x="50" y="-344.3" font-family="Times,serif" font-size="14.00" fill="#000000">Password</text>
</g>
<!-- p&#45;&gt;sh -->
<g id="edge5" class="edge">
<title>p&#45;&gt;sh</title>
<path fill="none" stroke="#000000" d="M84.3056,-354C89.1382,-354 92.5,-354 92.5,-354 92.5,-354 92.5,-270 92.5,-270 92.5,-270 97.7142,-270 97.7142,-270"/>
<polygon fill="#000000" stroke="#000000" points="97.7142,-273.5001 107.7142,-270 97.7142,-266.5001 97.7142,-273.5001"/>
</g>
<!-- p&#45;&gt;ph -->
<g id="edge6" class="edge">
<title>p&#45;&gt;ph</title>
<path fill="none" stroke="#000000" d="M59,-329.8314C59,-329.8314 59,-304.4133 59,-304.4133"/>
<polygon fill="#000000" stroke="#000000" points="62.5001,-304.4132 59,-294.4133 55.5001,-304.4133 62.5001,-304.4132"/>
</g>
<!-- i -->
<g id="node7" class="node">
<title>i</title>
<polygon fill="#d3d3d3" stroke="#000000" points="169,-222 103,-222 103,-186 169,-186 169,-222"/>
<text text-anchor="middle" x="136" y="-200.3" font-family="Times,serif" font-size="14.00" fill="#000000">Interlace</text>
</g>
<!-- sh&#45;&gt;i -->
<g id="edge7" class="edge">
<title>sh&#45;&gt;i</title>
<path fill="none" stroke="#000000" d="M136,-257.8314C136,-257.8314 136,-232.4133 136,-232.4133"/>
<polygon fill="#000000" stroke="#000000" points="139.5001,-232.4132 136,-222.4133 132.5001,-232.4133 139.5001,-232.4132"/>
</g>
<!-- uh&#45;&gt;i -->
<g id="edge8" class="edge">
<title>uh&#45;&gt;i</title>
<path fill="none" stroke="#000000" d="M210,-257.8314C210,-236.502 210,-204 210,-204 210,-204 179.1041,-204 179.1041,-204"/>
<polygon fill="#000000" stroke="#000000" points="179.1041,-200.5001 169.1041,-204 179.1041,-207.5001 179.1041,-200.5001"/>
</g>
<!-- ph&#45;&gt;i -->
<g id="edge9" class="edge">
<title>ph&#45;&gt;i</title>
<path fill="none" stroke="#000000" d="M62,-257.8314C62,-236.502 62,-204 62,-204 62,-204 92.8959,-204 92.8959,-204"/>
<polygon fill="#000000" stroke="#000000" points="92.8959,-207.5001 102.8959,-204 92.8959,-200.5001 92.8959,-207.5001"/>
</g>
<!-- fh -->
<g id="node8" class="node">
<title>fh</title>
<polygon fill="#d3d3d3" stroke="#000000" points="174.5,-150 97.5,-150 97.5,-114 174.5,-114 174.5,-150"/>
<text text-anchor="middle" x="136" y="-128.3" font-family="Times,serif" font-size="14.00" fill="#000000">SHA3&#45;256</text>
</g>
<!-- i&#45;&gt;fh -->
<g id="edge10" class="edge">
<title>i&#45;&gt;fh</title>
<path fill="none" stroke="#000000" d="M136,-185.8314C136,-185.8314 136,-160.4133 136,-160.4133"/>
<polygon fill="#000000" stroke="#000000" points="139.5001,-160.4132 136,-150.4133 132.5001,-160.4133 139.5001,-160.4132"/>
</g>
<!-- out -->
<g id="node9" class="node">
<title>out</title>
<polygon fill="#d3d3d3" stroke="#000000" points="165.5,-78 106.5,-78 106.5,-42 165.5,-42 165.5,-78"/>
<text text-anchor="middle" x="136" y="-56.3" font-family="Times,serif" font-size="14.00" fill="#000000">Base 91</text>
</g>
<!-- fh&#45;&gt;out -->
<g id="edge11" class="edge">
<title>fh&#45;&gt;out</title>
<path fill="none" stroke="#000000" d="M136,-113.8314C136,-113.8314 136,-88.4133 136,-88.4133"/>
<polygon fill="#000000" stroke="#000000" points="139.5001,-88.4132 136,-78.4133 132.5001,-88.4133 139.5001,-88.4132"/>
</g>
</g>
</svg>
